<svg width="138" height="21" viewBox="0 0 138 21" fill="none" xmlns="http://www.w3.org/2000/svg">
<path d="M30.6675 6.79857V11.338H36.7026V6.79857H38.1245V17.5836H36.7026V12.7062H30.6675V17.5836H29.2456V6.79857H30.6675Z" fill="#93795D"/>
<path d="M46.8765 6.55711C47.6769 6.55711 48.4142 6.70735 49.0883 7.00783C49.7624 7.29758 50.3522 7.70001 50.8578 8.21512C51.3633 8.73022 51.753 9.33118 52.0269 10.018C52.3112 10.6941 52.4534 11.4184 52.4534 12.1911C52.4534 12.9638 52.3112 13.6935 52.0269 14.3803C51.753 15.0564 51.3633 15.652 50.8578 16.1671C50.3522 16.6822 49.7624 17.09 49.0883 17.3905C48.4142 17.6802 47.6769 17.8251 46.8765 17.8251C46.076 17.8251 45.3387 17.6802 44.6646 17.3905C43.9905 17.09 43.4007 16.6822 42.8952 16.1671C42.3896 15.652 41.9946 15.0564 41.7102 14.3803C41.4364 13.6935 41.2995 12.9638 41.2995 12.1911C41.2995 11.4184 41.4364 10.6941 41.7102 10.018C41.9946 9.33118 42.3896 8.73022 42.8952 8.21512C43.4007 7.70001 43.9905 7.29758 44.6646 7.00783C45.3387 6.70735 46.076 6.55711 46.8765 6.55711ZM46.8765 7.97366C46.0865 7.97366 45.3808 8.15609 44.7594 8.52096C44.138 8.88583 43.6482 9.39021 43.2901 10.0341C42.932 10.6672 42.753 11.3863 42.753 12.1911C42.753 12.996 42.932 13.715 43.2901 14.3481C43.6482 14.9813 44.138 15.4857 44.7594 15.8613C45.3808 16.2261 46.0865 16.4086 46.8765 16.4086C47.6664 16.4086 48.3721 16.2261 48.9935 15.8613C49.6149 15.4857 50.1047 14.9813 50.4628 14.3481C50.8209 13.715 50.9999 12.996 50.9999 12.1911C50.9999 11.3863 50.8209 10.6672 50.4628 10.0341C50.1047 9.39021 49.6149 8.88583 48.9935 8.52096C48.3721 8.15609 47.6664 7.97366 46.8765 7.97366Z" fill="#93795D"/>
<path d="M64.1913 6.76638V13.3179C64.1913 14.2515 63.9965 15.0564 63.6068 15.7325C63.2276 16.3978 62.7115 16.9076 62.0585 17.2617C61.4055 17.6158 60.6629 17.7929 59.8308 17.7929C59.0093 17.7929 58.2668 17.6158 57.6032 17.2617C56.9502 16.9076 56.4288 16.3978 56.0391 15.7325C55.66 15.0564 55.4704 14.2515 55.4704 13.3179V6.76638H56.8923V13.2696C56.8923 13.9994 57.0239 14.5896 57.2872 15.0403C57.5611 15.491 57.9192 15.8183 58.3616 16.0222C58.8145 16.2154 59.3042 16.312 59.8308 16.312C60.3575 16.3012 60.842 16.1993 61.2843 16.0061C61.7372 15.8022 62.0953 15.4803 62.3587 15.0403C62.6325 14.5896 62.7694 13.9994 62.7694 13.2696V6.76638H64.1913Z" fill="#93795D"/>
<path d="M70.7156 6.6376C71.337 6.6376 71.8478 6.72882 72.2481 6.91125C72.6589 7.09368 73.017 7.28685 73.3224 7.49075V8.98778C73.0275 8.76242 72.6694 8.55316 72.2481 8.35999C71.8268 8.15609 71.3686 8.05415 70.8736 8.05415C70.5576 8.05415 70.2258 8.11317 69.8783 8.23121C69.5412 8.33853 69.2568 8.5156 69.0251 8.76242C68.7934 9.00924 68.6776 9.32582 68.6776 9.71215C68.6776 10.1414 68.8303 10.4687 69.1357 10.6941C69.4412 10.9194 69.8098 11.1341 70.2416 11.338L71.6951 12.014C72.4219 12.3467 72.9696 12.7169 73.3382 13.1247C73.7068 13.5325 73.8912 14.0745 73.8912 14.7505C73.8912 15.3408 73.7226 15.8613 73.3856 16.312C73.0486 16.752 72.6062 17.1007 72.0585 17.3583C71.5108 17.6158 70.9105 17.7446 70.2574 17.7446C69.6465 17.7446 69.0831 17.6373 68.567 17.4227C68.0509 17.208 67.6032 16.9666 67.2241 16.6983V15.2013C67.6348 15.491 68.1035 15.7539 68.6302 15.99C69.1673 16.2154 69.7729 16.3281 70.447 16.3281C70.9736 16.3281 71.4371 16.1939 71.8373 15.9256C72.2376 15.6574 72.4377 15.2871 72.4377 14.8149C72.4377 14.5467 72.3534 14.3159 72.1849 14.1228C72.0269 13.9296 71.8321 13.7633 71.6003 13.6238C71.3686 13.4842 71.1422 13.3662 70.921 13.2696L69.1673 12.4648C68.409 12.1214 67.8929 11.7189 67.619 11.2575C67.3452 10.796 67.2083 10.2648 67.2083 9.66386C67.2083 9.09509 67.3663 8.58535 67.6822 8.13463C68.0087 7.67318 68.4406 7.30831 68.9777 7.04003C69.5149 6.77174 70.0942 6.6376 70.7156 6.6376Z" fill="#93795D"/>
<path d="M83.6384 11.3702V12.7384H78.488V16.2154H84.3178V17.5836H77.0661V6.79857H84.3178V8.16683H78.488V11.3702H83.6384Z" fill="#93795D"/>
<path d="M95.4237 6.79857V8.16683H91.7742V17.5354H90.3523V8.16683H86.7027V6.79857H95.4237Z" fill="#93795D"/>
<path d="M101.079 6.79857L106.024 17.5836H104.318L103.212 15.0081H98.251L97.1293 17.5836H95.4231L100.368 6.79857H101.079ZM100.747 9.24533L98.8356 13.6398H102.627L100.747 9.24533Z" fill="#93795D"/>
<path d="M112.296 6.54102C113.075 6.54102 113.749 6.67516 114.318 6.94344C114.897 7.201 115.345 7.55513 115.661 8.00585C115.977 8.45657 116.135 8.97705 116.135 9.56728C116.135 10.0931 115.987 10.576 115.692 11.016C115.397 11.4453 115.029 11.7672 114.586 11.9818C114.902 12.0462 115.213 12.1804 115.519 12.3843C115.824 12.5882 116.077 12.8672 116.277 13.2213C116.488 13.5755 116.593 14.0154 116.593 14.5413C116.593 15.1422 116.424 15.6842 116.087 16.1671C115.75 16.65 115.266 17.0363 114.634 17.3261C114.012 17.6051 113.275 17.7446 112.422 17.7446C111.769 17.7446 111.084 17.7017 110.368 17.6158C109.662 17.5407 109.062 17.4495 108.567 17.3422V6.94344C109.115 6.81467 109.71 6.71808 110.352 6.6537C111.005 6.57858 111.653 6.54102 112.296 6.54102ZM112.201 7.90927C111.758 7.90927 111.358 7.92537 111 7.95756C110.652 7.98976 110.315 8.03805 109.989 8.10244V11.4828H112.469C113.186 11.4828 113.733 11.3004 114.112 10.9355C114.492 10.5599 114.681 10.1253 114.681 9.63166C114.681 9.24533 114.565 8.92876 114.334 8.68193C114.102 8.42438 113.796 8.23121 113.417 8.10244C113.049 7.97366 112.643 7.90927 112.201 7.90927ZM109.989 16.1832C110.368 16.2583 110.789 16.312 111.253 16.3442C111.716 16.3656 112.095 16.3764 112.39 16.3764C113.18 16.3764 113.833 16.21 114.349 15.8773C114.876 15.5447 115.139 15.0993 115.139 14.5413C115.139 13.9511 114.881 13.5111 114.365 13.2213C113.86 12.9208 113.238 12.7706 112.501 12.7706H109.989V16.1832Z" fill="#93795D"/>
<path d="M121.458 6.79857V16.2154H127.288V17.5836H120.036V6.79857H121.458Z" fill="#93795D"/>
<path d="M137.304 11.3702V12.7384H132.153V16.2154H137.983V17.5836H130.732V6.79857H137.983V8.16683H132.153V11.3702H137.304Z" fill="#93795D"/>
<path d="M8.92848 6.21679V10.7227H10.0206V4.85252L8.92848 6.21679Z" fill="#93795D"/>
<path d="M13.2971 10.7227V6.2172L12.205 4.85293V10.7227H13.2971Z" fill="#93795D"/>
<path fill-rule="evenodd" clip-rule="evenodd" d="M10.6866 0.233122C10.9053 -0.0399469 11.3204 -0.0399472 11.539 0.233122L21.1213 12.2027C21.4077 12.5605 21.1532 13.091 20.6951 13.091H1.53051C1.07242 13.091 0.817914 12.5605 1.10434 12.2027L10.6866 0.233122ZM3.04688 11.8158L11.1128 1.7403L19.1787 11.8158H3.04688Z" fill="#93795D"/>
<path d="M3.83169 3.52657H6.65042L5.77535 4.61965H4.37777V6.36541L3.28561 7.72968V4.07311C3.28561 3.77126 3.5301 3.52657 3.83169 3.52657Z" fill="#93795D"/>
<path d="M4.37777 19.1941V14.1841H3.28561V19.7406C3.28561 20.0425 3.5301 20.2871 3.83169 20.2871H9.47456C9.77615 20.2871 10.0206 20.0425 10.0206 19.7406V14.1841H8.92848V19.1941H4.37777Z" fill="#93795D"/>
<path d="M12.205 19.7406V14.1841H13.2971V19.1941H17.8478V14.1841H18.94V19.7406C18.94 20.0425 18.6955 20.2871 18.3939 20.2871H12.7511C12.4495 20.2871 12.205 20.0425 12.205 19.7406Z" fill="#93795D"/>
<path d="M17.8478 4.61965V6.36582L18.94 7.73009V4.07311C18.94 3.77126 18.6955 3.52657 18.3939 3.52657H15.5749L16.4499 4.61965H17.8478Z" fill="#93795D"/>
</svg>
